<?xml version="1.0" standalone="no"?>
<!DOCTYPE svg PUBLIC "-//W3C//DTD SVG 20010904//EN"
 "http://www.w3.org/TR/2001/REC-SVG-20010904/DTD/svg10.dtd">
<svg version="1.0" xmlns="http://www.w3.org/2000/svg"
 width="3000.000000pt" height="2000.000000pt" viewBox="0 0 3000.000000 2000.000000"
 preserveAspectRatio="xMidYMid meet">

<g transform="translate(0.000000,2000.000000) scale(0.100000,-0.100000)"
fill="#000000" stroke="none">
<path d="M14616 16050 c-420 -31 -840 -108 -1290 -236 -829 -237 -1599 -654
-2286 -1239 -165 -141 -545 -526 -687 -695 -424 -509 -718 -1001 -969 -1623
-472 -1167 -567 -2503 -265 -3722 221 -892 636 -1705 1244 -2435 159 -191 553
-583 747 -745 841 -700 1816 -1150 2881 -1330 621 -105 1286 -112 1914 -19
1048 155 2050 594 2880 1262 271 218 640 578 849 827 333 398 582 781 802
1230 417 853 617 1723 616 2680 -1 928 -186 1751 -590 2621 -437 943 -1181
1792 -2102 2399 -230 152 -408 253 -675 386 -307 152 -499 231 -810 334 -451
150 -848 236 -1315 286 -211 23 -744 33 -944 19z m574 -680 c239 -10 439 -29
635 -60 766 -123 1497 -407 2145 -834 316 -208 529 -384 825 -681 227 -226
360 -378 518 -589 927 -1243 1279 -2898 937 -4408 -128 -563 -387 -1181 -702
-1678 -736 -1157 -1948 -2029 -3279 -2359 -620 -153 -1313 -192 -1959 -110
-1503 190 -2942 1095 -3807 2394 -468 703 -774 1565 -865 2435 -21 198 -17
825 5 1025 103 904 392 1716 875 2455 328 502 745 952 1207 1301 139 105 405
281 571 378 745 437 1616 694 2474 730 96 5 180 8 185 9 6 1 111 -3 235 -8z"/>
<path d="M12689 13148 c-5 -8 -35 -644 -32 -648 3 -3 431 -3 951 -2 989 4
1178 -1 1516 -39 340 -38 471 -69 641 -149 440 -210 770 -686 836 -1206 15
-121 6 -393 -16 -494 -50 -229 -141 -408 -305 -605 -245 -294 -578 -473 -1022
-551 -221 -38 -333 -46 -770 -51 -252 -3 -438 -9 -438 -14 0 -27 2114 -2854
2203 -2946 47 -49 128 -94 212 -119 49 -14 121 -18 395 -23 184 -3 336 -5 338
-5 12 5 -851 1160 -1482 1982 -220 288 -402 526 -403 530 -2 4 68 24 155 46
410 100 746 235 983 395 287 193 540 495 679 811 123 279 191 642 176 942 -24
489 -179 922 -461 1283 -80 103 -269 284 -370 356 -348 247 -847 412 -1426
474 -304 32 -628 38 -1273 26 -336 -6 -649 -9 -696 -6 -123 7 -390 16 -391 13z"/>
</g>
</svg>
